<?xml version="1.0" standalone="no"?><svg xmlns="http://www.w3.org/2000/svg" viewBox="0 0 1440 320"><path fill="#e2e1e1" fill-opacity="1" d="M0,32L40,37.3C80,43,160,53,240,85.3C320,117,400,171,480,181.3C560,192,640,160,720,165.3C800,171,880,213,960,224C1040,235,1120,213,1200,176C1280,139,1360,85,1400,58.7L1440,32L1440,320L1400,320C1360,320,1280,320,1200,320C1120,320,1040,320,960,320C880,320,800,320,720,320C640,320,560,320,480,320C400,320,320,320,240,320C160,320,80,320,40,320L0,320Z"></path></svg>